<svg xmlns="http://www.w3.org/2000/svg" viewBox="0 0 494.59 375.12"><g id="レイヤー_2" data-name="レイヤー 2"><g id="レイヤー_1-2" data-name="レイヤー 1"><path d="M244.37,103.9l-142.57,103V360.12a15,15,0,0,0,15,15h77a15,15,0,0,0,15-15v-92a15,15,0,0,1,15-15h48a15,15,0,0,1,15,15v92a15,15,0,0,0,15,15h76a15,15,0,0,0,15-15V206.87l-142.58-103A5,5,0,0,0,244.37,103.9Z"/><path d="M488,162.13,392.8,93.38V15.12a15,15,0,0,0-15-15h-24a15,15,0,0,0-15,15V54.38L276.63,9.48a50.13,50.13,0,0,0-58.67,0L6.61,162.13A15.94,15.94,0,0,0,3,184.39l20.55,28.46a16,16,0,0,0,22.27,3.59L238,77.69a15.93,15.93,0,0,1,18.67,0L448.75,216.44A16,16,0,0,0,471,212.85l20.55-28.46A15.94,15.94,0,0,0,488,162.13Z"/></g></g></svg>