<?xml version="1.0" encoding="utf-8"?>
<!-- Generator: Adobe Illustrator 25.1.0, SVG Export Plug-In . SVG Version: 6.00 Build 0)  -->
<svg version="1.1" id="レイヤー_1" xmlns="http://www.w3.org/2000/svg" xmlns:xlink="http://www.w3.org/1999/xlink" x="0px"
	 y="0px" viewBox="0 0 7 7" style="enable-background:new 0 0 7 7;" xml:space="preserve">
<style type="text/css">
	.st0{fill:#C1C0C0;}
</style>
<g>
	<path class="st0" d="M6.9,6.5L6.5,6.9C6.4,7,6.2,7,6.1,6.9L4.7,5.5C4.6,5.5,4.6,5.4,4.6,5.3V5.1C4.1,5.5,3.5,5.7,2.8,5.7
		C1.3,5.7,0,4.4,0,2.8S1.3,0,2.8,0s2.8,1.3,2.8,2.8c0,0.7-0.2,1.3-0.6,1.7h0.2c0.1,0,0.2,0,0.2,0.1l1.4,1.4C7,6.2,7,6.4,6.9,6.5z
		 M4.6,2.8c0-1-0.8-1.7-1.8-1.7c-1,0-1.8,0.8-1.8,1.7c0,1,0.8,1.7,1.8,1.7C3.8,4.6,4.6,3.8,4.6,2.8z"/>
</g>
</svg>
