<?xml version="1.0" encoding="utf-8"?>
<!-- Generator: Adobe Illustrator 25.1.0, SVG Export Plug-In . SVG Version: 6.00 Build 0)  -->
<svg version="1.1" id="レイヤー_1" xmlns="http://www.w3.org/2000/svg" xmlns:xlink="http://www.w3.org/1999/xlink" x="0px"
	 y="0px" viewBox="0 0 7 7" style="enable-background:new 0 0 7 7;" xml:space="preserve">
<style type="text/css">
	.st0{fill:#C1C0C0;}
</style>
<g>
	<path class="st0" d="M7,6.8L6.8,7C6.8,7,6.6,7,6.6,7L4.8,5.2c0,0,0-0.1,0-0.1V4.9C4.3,5.4,3.6,5.7,2.8,5.7C1.3,5.7,0,4.4,0,2.8
		C0,1.3,1.3,0,2.8,0c1.6,0,2.8,1.3,2.8,2.8c0,0.7-0.3,1.4-0.8,1.9h0.1c0,0,0.1,0,0.1,0L7,6.6C7,6.6,7,6.8,7,6.8z M5.2,2.8
		c0-1.3-1.1-2.4-2.4-2.4S0.4,1.5,0.4,2.8s1.1,2.4,2.4,2.4S5.2,4.2,5.2,2.8z"/>
</g>
</svg>
