<svg xmlns="http://www.w3.org/2000/svg" width="5.002" height="7.276" viewBox="0 0 5.002 7.276">
  <g id="sort-icon" transform="translate(0)">
    <g id="グループ_1005" data-name="グループ 1005" transform="translate(0.001 0.001)">
      <path id="パス_7" data-name="パス 7" d="M2.708,45.312l2.215-2.539a.285.285,0,0,0-.217-.472H.277a.285.285,0,0,0-.217.472l2.215,2.539a.285.285,0,0,0,.433,0" transform="translate(0.008 -38.137)" fill="#777" fill-rule="evenodd"/>
      <path id="パス_8" data-name="パス 8" d="M2.275.089.061,2.638a.285.285,0,0,0,.217.472H4.706a.285.285,0,0,0,.217-.472L2.708.089a.285.285,0,0,0-.433,0" transform="translate(0.008 0.01)" fill="#c1c0c0" fill-rule="evenodd"/>
    </g>
  </g>
</svg>
