<svg xmlns="http://www.w3.org/2000/svg" viewBox="0 0 62 79.78"><defs><style>.cls-1{fill:#c1c0c0;}</style></defs><g id="レイヤー_2" data-name="レイヤー 2"><g id="icons"><g id="grey-download1"><path class="cls-1" d="M31,65.63a3.74,3.74,0,0,1-4-3.42V3.42A3.74,3.74,0,0,1,31,0a3.74,3.74,0,0,1,4,3.42V62.21A3.74,3.74,0,0,1,31,65.63Z"/><path class="cls-1" d="M62,76.28a3.38,3.38,0,0,1-3.23,3.5H3.23a3.51,3.51,0,0,1,0-7H58.77A3.38,3.38,0,0,1,62,76.28Z"/><path class="cls-1" d="M32.93,64.88c-1.36,1.37-3.13,1.82-3.95,1L3.65,40.55c-.81-.82-.37-2.59,1-3.95s3.14-1.82,3.95-1L33.93,60.93C34.75,61.75,34.3,63.51,32.93,64.88Z"/><path class="cls-1" d="M28.73,64.88c1.36,1.37,3.13,1.82,3.95,1L58,40.55c.82-.82.37-2.59-1-3.95s-3.13-1.82-3.95-1L27.73,60.93C26.91,61.75,27.36,63.51,28.73,64.88Z"/></g></g></g></svg>