<svg xmlns="http://www.w3.org/2000/svg" viewBox="0 0 54.3 77.5"><defs><style>.cls-1{fill:#e6e6e6;stroke-linecap:round;stroke-linejoin:round;stroke-width:6px;}.cls-1,.cls-2{stroke:#256d80;}.cls-2{fill:#256d80;stroke-miterlimit:10;}</style></defs><g id="レイヤー_2" data-name="レイヤー 2"><g id="icons"><g id="download"><line class="cls-1" x1="3" y1="74.5" x2="51.3" y2="74.5"/><path class="cls-2" d="M47.22,25.64H34.73a.5.5,0,0,1-.5-.5V1a.5.5,0,0,0-.5-.5H20.59a.5.5,0,0,0-.5.5V25.14a.5.5,0,0,1-.5.5H7.1a3.43,3.43,0,0,0-2.88,5.29l20.06,31a3.43,3.43,0,0,0,5.75,0l20.07-31A3.43,3.43,0,0,0,47.22,25.64Z"/></g></g></g></svg>